<mxfile host="app.diagrams.net" modified="2023-04-16T19:44:45.905Z" agent="Mozilla/5.0 (Windows NT 10.0; Win64; x64) AppleWebKit/537.36 (KHTML, like Gecko) Chrome/112.0.0.0 Safari/537.36" etag="2fdMGUs3ZMdiv32OjVJn" version="21.1.8" type="device">
  <diagram name="Page-1" id="b5b7bab2-c9e2-2cf4-8b2a-24fd1a2a6d21">
    <mxGraphModel dx="1014" dy="524" grid="1" gridSize="10" guides="1" tooltips="1" connect="1" arrows="1" fold="1" page="1" pageScale="1" pageWidth="827" pageHeight="1169" background="none" math="0" shadow="0">
      <root>
        <mxCell id="0" />
        <mxCell id="1" parent="0" />
        <mxCell id="O3rlK0vz1DHQ-dX-bLRC-1" value="Tractor System&lt;br&gt;Operator" style="shape=umlActor;verticalLabelPosition=bottom;verticalAlign=top;html=1;outlineConnect=0;" vertex="1" parent="1">
          <mxGeometry x="110" y="460" width="30" height="60" as="geometry" />
        </mxCell>
        <mxCell id="O3rlK0vz1DHQ-dX-bLRC-2" value="" style="shape=folder;fontStyle=1;spacingTop=10;tabWidth=160;tabHeight=20;tabPosition=left;html=1;whiteSpace=wrap;" vertex="1" parent="1">
          <mxGeometry x="230" y="330" width="390" height="520" as="geometry" />
        </mxCell>
        <mxCell id="O3rlK0vz1DHQ-dX-bLRC-3" value="Implement Module System" style="text;html=1;strokeColor=none;fillColor=none;align=center;verticalAlign=middle;whiteSpace=wrap;rounded=0;" vertex="1" parent="1">
          <mxGeometry x="199" y="326" width="227" height="30" as="geometry" />
        </mxCell>
        <mxCell id="O3rlK0vz1DHQ-dX-bLRC-19" style="edgeStyle=orthogonalEdgeStyle;rounded=0;orthogonalLoop=1;jettySize=auto;html=1;exitX=0;exitY=1;exitDx=0;exitDy=0;entryX=0;entryY=0.5;entryDx=0;entryDy=0;" edge="1" parent="1" source="O3rlK0vz1DHQ-dX-bLRC-4" target="O3rlK0vz1DHQ-dX-bLRC-10">
          <mxGeometry relative="1" as="geometry" />
        </mxCell>
        <mxCell id="O3rlK0vz1DHQ-dX-bLRC-20" style="edgeStyle=orthogonalEdgeStyle;rounded=0;orthogonalLoop=1;jettySize=auto;html=1;exitX=0;exitY=1;exitDx=0;exitDy=0;entryX=0;entryY=0.5;entryDx=0;entryDy=0;" edge="1" parent="1" source="O3rlK0vz1DHQ-dX-bLRC-4" target="O3rlK0vz1DHQ-dX-bLRC-11">
          <mxGeometry relative="1" as="geometry" />
        </mxCell>
        <mxCell id="O3rlK0vz1DHQ-dX-bLRC-4" value="Trigger operator command" style="ellipse;whiteSpace=wrap;html=1;" vertex="1" parent="1">
          <mxGeometry x="334" y="370" width="160" height="60" as="geometry" />
        </mxCell>
        <mxCell id="O3rlK0vz1DHQ-dX-bLRC-5" value="" style="endArrow=classic;html=1;rounded=0;entryX=0;entryY=0.5;entryDx=0;entryDy=0;" edge="1" parent="1" source="O3rlK0vz1DHQ-dX-bLRC-1" target="O3rlK0vz1DHQ-dX-bLRC-4">
          <mxGeometry width="50" height="50" relative="1" as="geometry">
            <mxPoint x="310" y="580" as="sourcePoint" />
            <mxPoint x="360" y="530" as="targetPoint" />
          </mxGeometry>
        </mxCell>
        <mxCell id="O3rlK0vz1DHQ-dX-bLRC-6" value="Commands" style="edgeLabel;html=1;align=center;verticalAlign=middle;resizable=0;points=[];" vertex="1" connectable="0" parent="O3rlK0vz1DHQ-dX-bLRC-5">
          <mxGeometry x="-0.5898" relative="1" as="geometry">
            <mxPoint x="94" y="-35" as="offset" />
          </mxGeometry>
        </mxCell>
        <mxCell id="O3rlK0vz1DHQ-dX-bLRC-30" style="edgeStyle=orthogonalEdgeStyle;rounded=0;orthogonalLoop=1;jettySize=auto;html=1;exitX=1;exitY=0.5;exitDx=0;exitDy=0;entryX=0.5;entryY=0;entryDx=0;entryDy=0;entryPerimeter=0;" edge="1" parent="1" source="O3rlK0vz1DHQ-dX-bLRC-10" target="O3rlK0vz1DHQ-dX-bLRC-7">
          <mxGeometry relative="1" as="geometry" />
        </mxCell>
        <mxCell id="O3rlK0vz1DHQ-dX-bLRC-31" value="Power on command" style="edgeLabel;html=1;align=center;verticalAlign=middle;resizable=0;points=[];" vertex="1" connectable="0" parent="O3rlK0vz1DHQ-dX-bLRC-30">
          <mxGeometry x="-0.0582" relative="1" as="geometry">
            <mxPoint x="1" as="offset" />
          </mxGeometry>
        </mxCell>
        <mxCell id="O3rlK0vz1DHQ-dX-bLRC-10" value="Power on Implement" style="ellipse;whiteSpace=wrap;html=1;" vertex="1" parent="1">
          <mxGeometry x="409" y="450" width="160" height="60" as="geometry" />
        </mxCell>
        <mxCell id="O3rlK0vz1DHQ-dX-bLRC-32" style="edgeStyle=orthogonalEdgeStyle;rounded=0;orthogonalLoop=1;jettySize=auto;html=1;exitX=1;exitY=0.5;exitDx=0;exitDy=0;entryX=0.25;entryY=0.1;entryDx=0;entryDy=0;entryPerimeter=0;" edge="1" parent="1" target="O3rlK0vz1DHQ-dX-bLRC-7">
          <mxGeometry relative="1" as="geometry">
            <mxPoint x="730.9999999999998" y="590" as="targetPoint" />
            <mxPoint x="550" y="560" as="sourcePoint" />
            <Array as="points">
              <mxPoint x="711" y="560" />
              <mxPoint x="711" y="590" />
              <mxPoint x="748" y="590" />
            </Array>
          </mxGeometry>
        </mxCell>
        <mxCell id="O3rlK0vz1DHQ-dX-bLRC-33" value="Power off command" style="edgeLabel;html=1;align=center;verticalAlign=middle;resizable=0;points=[];" vertex="1" connectable="0" parent="O3rlK0vz1DHQ-dX-bLRC-32">
          <mxGeometry x="0.3599" relative="1" as="geometry">
            <mxPoint x="-18" as="offset" />
          </mxGeometry>
        </mxCell>
        <mxCell id="O3rlK0vz1DHQ-dX-bLRC-11" value="Power off Implement" style="ellipse;whiteSpace=wrap;html=1;" vertex="1" parent="1">
          <mxGeometry x="409" y="530" width="160" height="60" as="geometry" />
        </mxCell>
        <mxCell id="O3rlK0vz1DHQ-dX-bLRC-13" value="Get Implement power state" style="ellipse;whiteSpace=wrap;html=1;" vertex="1" parent="1">
          <mxGeometry x="409" y="610" width="160" height="60" as="geometry" />
        </mxCell>
        <mxCell id="O3rlK0vz1DHQ-dX-bLRC-14" value="Get Implement fuel state" style="ellipse;whiteSpace=wrap;html=1;" vertex="1" parent="1">
          <mxGeometry x="409" y="690" width="160" height="60" as="geometry" />
        </mxCell>
        <mxCell id="O3rlK0vz1DHQ-dX-bLRC-22" style="edgeStyle=orthogonalEdgeStyle;rounded=0;orthogonalLoop=1;jettySize=auto;html=1;exitX=0;exitY=0.5;exitDx=0;exitDy=0;entryX=0;entryY=0.5;entryDx=0;entryDy=0;" edge="1" parent="1" target="O3rlK0vz1DHQ-dX-bLRC-11">
          <mxGeometry relative="1" as="geometry">
            <mxPoint x="416" y="799.9999999999998" as="sourcePoint" />
            <mxPoint x="400" y="565" as="targetPoint" />
            <Array as="points">
              <mxPoint x="357" y="800" />
              <mxPoint x="357" y="560" />
            </Array>
          </mxGeometry>
        </mxCell>
        <mxCell id="O3rlK0vz1DHQ-dX-bLRC-23" value="Fuel Level Low" style="edgeLabel;html=1;align=center;verticalAlign=middle;resizable=0;points=[];" vertex="1" connectable="0" parent="O3rlK0vz1DHQ-dX-bLRC-22">
          <mxGeometry x="-0.1937" y="-2" relative="1" as="geometry">
            <mxPoint x="1" y="41" as="offset" />
          </mxGeometry>
        </mxCell>
        <mxCell id="O3rlK0vz1DHQ-dX-bLRC-15" value="Monitor fuel level" style="ellipse;whiteSpace=wrap;html=1;" vertex="1" parent="1">
          <mxGeometry x="409" y="770" width="160" height="60" as="geometry" />
        </mxCell>
        <mxCell id="O3rlK0vz1DHQ-dX-bLRC-16" value="" style="group" vertex="1" connectable="0" parent="1">
          <mxGeometry x="740" y="580" width="50" height="80" as="geometry" />
        </mxCell>
        <mxCell id="O3rlK0vz1DHQ-dX-bLRC-7" value="" style="shape=umlActor;verticalLabelPosition=bottom;verticalAlign=top;html=1;outlineConnect=0;" vertex="1" parent="O3rlK0vz1DHQ-dX-bLRC-16">
          <mxGeometry width="30" height="60" as="geometry" />
        </mxCell>
        <mxCell id="O3rlK0vz1DHQ-dX-bLRC-8" value="" style="shape=umlActor;verticalLabelPosition=bottom;verticalAlign=top;html=1;outlineConnect=0;" vertex="1" parent="O3rlK0vz1DHQ-dX-bLRC-16">
          <mxGeometry x="10" y="10" width="30" height="60" as="geometry" />
        </mxCell>
        <mxCell id="O3rlK0vz1DHQ-dX-bLRC-9" value="Implements" style="shape=umlActor;verticalLabelPosition=bottom;verticalAlign=top;html=1;outlineConnect=0;" vertex="1" parent="O3rlK0vz1DHQ-dX-bLRC-16">
          <mxGeometry x="20" y="20" width="30" height="60" as="geometry" />
        </mxCell>
        <mxCell id="O3rlK0vz1DHQ-dX-bLRC-24" style="edgeStyle=orthogonalEdgeStyle;rounded=0;orthogonalLoop=1;jettySize=auto;html=1;exitX=0;exitY=0.3333333333333333;exitDx=0;exitDy=0;exitPerimeter=0;entryX=1;entryY=0.5;entryDx=0;entryDy=0;" edge="1" parent="1" source="O3rlK0vz1DHQ-dX-bLRC-8" target="O3rlK0vz1DHQ-dX-bLRC-13">
          <mxGeometry relative="1" as="geometry" />
        </mxCell>
        <mxCell id="O3rlK0vz1DHQ-dX-bLRC-28" value="Report Power&lt;br&gt;state" style="edgeLabel;html=1;align=center;verticalAlign=middle;resizable=0;points=[];" vertex="1" connectable="0" parent="O3rlK0vz1DHQ-dX-bLRC-24">
          <mxGeometry x="-0.4728" y="-1" relative="1" as="geometry">
            <mxPoint as="offset" />
          </mxGeometry>
        </mxCell>
        <mxCell id="O3rlK0vz1DHQ-dX-bLRC-27" style="edgeStyle=orthogonalEdgeStyle;rounded=0;orthogonalLoop=1;jettySize=auto;html=1;exitX=0;exitY=1;exitDx=0;exitDy=0;exitPerimeter=0;entryX=1;entryY=0.5;entryDx=0;entryDy=0;" edge="1" parent="1" source="O3rlK0vz1DHQ-dX-bLRC-9" target="O3rlK0vz1DHQ-dX-bLRC-14">
          <mxGeometry relative="1" as="geometry">
            <Array as="points">
              <mxPoint x="700" y="660" />
              <mxPoint x="700" y="720" />
            </Array>
          </mxGeometry>
        </mxCell>
        <mxCell id="O3rlK0vz1DHQ-dX-bLRC-29" value="Report fuel&lt;br&gt;state" style="edgeLabel;html=1;align=center;verticalAlign=middle;resizable=0;points=[];" vertex="1" connectable="0" parent="O3rlK0vz1DHQ-dX-bLRC-27">
          <mxGeometry x="0.334" y="-2" relative="1" as="geometry">
            <mxPoint as="offset" />
          </mxGeometry>
        </mxCell>
        <mxCell id="O3rlK0vz1DHQ-dX-bLRC-35" value="" style="endArrow=classic;html=1;rounded=0;exitX=0;exitY=0.5;exitDx=0;exitDy=0;entryX=0.5;entryY=0.5;entryDx=0;entryDy=0;entryPerimeter=0;" edge="1" parent="1" source="O3rlK0vz1DHQ-dX-bLRC-13" target="O3rlK0vz1DHQ-dX-bLRC-1">
          <mxGeometry width="50" height="50" relative="1" as="geometry">
            <mxPoint x="370" y="650" as="sourcePoint" />
            <mxPoint x="420" y="600" as="targetPoint" />
          </mxGeometry>
        </mxCell>
        <mxCell id="O3rlK0vz1DHQ-dX-bLRC-36" value="Power state&lt;br&gt;report" style="edgeLabel;html=1;align=center;verticalAlign=middle;resizable=0;points=[];" vertex="1" connectable="0" parent="O3rlK0vz1DHQ-dX-bLRC-35">
          <mxGeometry x="-0.1922" relative="1" as="geometry">
            <mxPoint as="offset" />
          </mxGeometry>
        </mxCell>
        <mxCell id="O3rlK0vz1DHQ-dX-bLRC-37" value="" style="endArrow=classic;html=1;rounded=0;exitX=0;exitY=0.5;exitDx=0;exitDy=0;" edge="1" parent="1" source="O3rlK0vz1DHQ-dX-bLRC-14" target="O3rlK0vz1DHQ-dX-bLRC-1">
          <mxGeometry width="50" height="50" relative="1" as="geometry">
            <mxPoint x="370" y="640" as="sourcePoint" />
            <mxPoint x="420" y="590" as="targetPoint" />
          </mxGeometry>
        </mxCell>
        <mxCell id="O3rlK0vz1DHQ-dX-bLRC-38" value="Fuel state&lt;br&gt;report" style="edgeLabel;html=1;align=center;verticalAlign=middle;resizable=0;points=[];" vertex="1" connectable="0" parent="O3rlK0vz1DHQ-dX-bLRC-37">
          <mxGeometry x="-0.3362" y="3" relative="1" as="geometry">
            <mxPoint as="offset" />
          </mxGeometry>
        </mxCell>
      </root>
    </mxGraphModel>
  </diagram>
</mxfile>
